<svg xmlns="http://www.w3.org/2000/svg" viewBox="0 0 960 600" role="img" aria-label="Urban sprawl prediction satellite imagery analysis">
  <rect width="960" height="600" fill="#0a0a0a"/>
  <rect x="40" y="40" width="880" height="520" rx="14" fill="#141414"/>
  <g opacity="0.12">
    <line x1="40" y1="130" x2="920" y2="130" stroke="#f6f3ee" stroke-width="1"/>
    <line x1="40" y1="220" x2="920" y2="220" stroke="#f6f3ee" stroke-width="1"/>
    <line x1="40" y1="310" x2="920" y2="310" stroke="#f6f3ee" stroke-width="1"/>
    <line x1="40" y1="400" x2="920" y2="400" stroke="#f6f3ee" stroke-width="1"/>
    <line x1="130" y1="40" x2="130" y2="560" stroke="#f6f3ee" stroke-width="1"/>
    <line x1="310" y1="40" x2="310" y2="560" stroke="#f6f3ee" stroke-width="1"/>
    <line x1="490" y1="40" x2="490" y2="560" stroke="#f6f3ee" stroke-width="1"/>
    <line x1="670" y1="40" x2="670" y2="560" stroke="#f6f3ee" stroke-width="1"/>
    <line x1="760" y1="40" x2="760" y2="560" stroke="#f6f3ee" stroke-width="1"/>
  </g>
  <rect x="160" y="100" width="120" height="90" rx="4" fill="#1a3a2a" stroke="#0f766e" stroke-width="2"/>
  <rect x="300" y="100" width="100" height="90" rx="4" fill="#1a3a2a" stroke="#0f766e" stroke-width="2"/>
  <rect x="420" y="100" width="140" height="90" rx="4" fill="#1a3a2a" stroke="#0f766e" stroke-width="2"/>
  <rect x="100" y="220" width="180" height="100" rx="4" fill="#2d1f14" stroke="#fb8f67" stroke-width="2"/>
  <rect x="310" y="210" width="200" height="110" rx="4" fill="#2d1f14" stroke="#fb8f67" stroke-width="2"/>
  <rect x="540" y="220" width="90" height="100" rx="4" fill="#1a3a2a" stroke="#0f766e" stroke-width="2"/>
  <rect x="660" y="220" width="160" height="100" rx="4" fill="#2d1f14" stroke="#fb8f67" stroke-width="2"/>
  <rect x="100" y="350" width="240" height="130" rx="4" fill="#be5b38" fill-opacity="0.25" stroke="#be5b38" stroke-width="2"/>
  <rect x="370" y="350" width="130" height="130" rx="4" fill="#be5b38" fill-opacity="0.25" stroke="#be5b38" stroke-width="2"/>
  <rect x="530" y="350" width="200" height="130" rx="4" fill="#be5b38" fill-opacity="0.25" stroke="#be5b38" stroke-width="2"/>
  <path d="M80 480h240v40H80z" fill="#2563eb" opacity="0.3"/>
  <path d="M400 480h200v40H400z" fill="#2563eb" opacity="0.3"/>
  <path d="M680 480h160v40H680z" fill="#2563eb" opacity="0.3"/>
  <path d="M820 80v160" stroke="#f6f3ee" stroke-width="3" stroke-dasharray="8 6" opacity="0.4"/>
  <path d="M780 130L820 96 860 130" fill="none" stroke="#f6f3ee" stroke-width="3" opacity="0.5"/>
  <text x="780" y="56" fill="#f6f3ee" font-family="sans-serif" font-size="11" font-weight="600" opacity="0.5">+42%</text>
</svg>
